# Blender 3.4.1
# www.blender.org
mtllib boat.mtl
o Cube
v 0.409620 0.230399 -0.684410
v 0.201788 -0.322613 -0.524256
v 0.409620 0.230399 0.541817
v 0.323839 -0.322613 0.274770
v -0.409642 0.230399 -0.684410
v -0.201809 -0.322613 -0.530986
v -0.409642 0.230399 0.541817
v -0.323007 -0.322613 0.266491
v -0.270123 -0.318759 -0.157224
v -0.000011 -0.322613 -0.690551
v 0.409620 0.182117 -0.684410
v -0.409642 0.182117 0.541817
v 0.409620 0.182117 0.541817
v -0.409642 0.182117 -0.684410
v 0.409620 0.230399 -0.274779
v -0.000011 -0.322613 0.646868
v -0.409642 0.230399 -0.274779
v 0.267919 -0.318759 -0.157224
v -0.000011 0.257757 -0.908605
v 0.409620 0.182117 -0.274779
v -0.409642 0.182117 -0.274779
v -0.000011 0.313007 1.047230
v 0.409620 0.294429 -0.682493
v 0.409620 0.294429 0.543734
v -0.409642 0.294429 -0.682493
v -0.409642 0.294429 0.543734
v -0.354827 0.240412 -0.605388
v 0.409620 0.294429 -0.272862
v -0.409642 0.294429 -0.272862
v 0.354806 0.271186 0.456752
v -0.000011 0.321787 -0.906687
v -0.000011 0.377037 1.049147
v 0.354806 0.240412 -0.605388
v 0.354806 0.294351 -0.605388
v 0.354806 0.294351 0.456752
v -0.354827 0.294351 -0.605388
v -0.354827 0.294351 0.456752
v 0.354806 0.294351 -0.250571
v -0.354827 0.294351 -0.250571
v -0.000011 0.318049 -0.773795
v -0.000011 0.381472 0.879011
v -0.354827 0.271186 0.456752
v -0.000011 0.271186 0.456752
v 0.354806 0.235141 -0.250571
v -0.354827 0.235141 -0.250571
v -0.000011 0.240412 -0.605388
v -0.000011 0.274408 -0.773795
v -0.000011 0.341436 0.879011
v -0.000011 0.235141 -0.250571
v 0.143312 -0.973922 -0.411073
v 0.230046 -0.973922 0.156740
v -0.143496 -0.973922 -0.415856
v -0.229624 -0.973922 0.150856
v -0.192042 -0.971182 -0.150249
v -0.000092 -0.973922 -0.529248
v -0.000092 -0.973922 0.290311
v 0.190307 -0.971182 -0.150249
v -0.000868 -0.971182 -0.150249
vn 1.0000 -0.0000 -0.0000
vn -1.0000 -0.0000 -0.0000
vn 0.6425 -0.3028 0.7039
vn 0.4813 0.0262 -0.8762
vn 0.4084 -0.3210 -0.8545
vn -0.4084 -0.3210 -0.8545
vn 0.9758 -0.2141 -0.0444
vn 0.9348 -0.3464 -0.0779
vn -0.9770 -0.1188 -0.1773
vn 0.9846 -0.1185 -0.1285
vn -0.9851 -0.1192 -0.1240
vn -0.9353 -0.3446 -0.0799
vn -0.9762 -0.2129 -0.0423
vn -0.6579 -0.4014 0.6372
vn 0.6579 -0.4014 0.6372
vn 0.7752 -0.0189 0.6314
vn -0.4813 0.0262 -0.8762
vn -0.7769 -0.0000 0.6297
vn 0.7769 -0.0000 0.6297
vn -0.6861 -0.4356 0.5826
vn 0.6812 -0.4295 0.5929
vn 0.4801 -0.0000 -0.8772
vn -0.4801 -0.0000 -0.8772
vn 0.5673 -0.4520 -0.6884
vn -0.5561 -0.4428 -0.7033
vn -0.7752 -0.0189 0.6314
vn -0.1892 0.9817 -0.0237
vn -0.0014 1.0000 -0.0000
vn 0.0506 0.9982 0.0313
vn 0.0014 1.0000 -0.0000
vn 0.1892 0.9817 -0.0237
vn -0.0506 0.9982 0.0313
vn 0.7656 -0.0000 -0.6433
vn -0.4288 -0.0000 0.9034
vn -0.7656 -0.0000 -0.6433
vn 0.4288 -0.0000 0.9034
vn -0.0000 0.9987 -0.0509
vn -0.0000 0.9864 -0.1641
vn -0.0000 0.9802 0.1979
vn -0.0000 0.9999 0.0149
vn -0.0023 -1.0000 -0.0072
vn 0.0024 -1.0000 -0.0073
vn 0.0030 -1.0000 0.0087
vn -0.0031 -1.0000 0.0088
vn -0.6089 -0.1906 -0.7700
vn 0.6246 -0.1878 -0.7580
vn 0.9775 -0.1181 -0.1749
vn -0.6539 -0.2988 0.6951
vt 0.625000 0.500000
vt 0.375000 0.500000
vt 0.625000 0.750000
vt 0.375000 0.750000
vt 0.625000 0.250000
vt 0.375000 0.250000
vt 0.625000 0.000000
vt 0.625000 1.000000
vt 0.375000 0.000000
vt 0.375000 1.000000
vt 0.375000 0.125000
vt 0.375000 0.375000
vt 0.500000 0.500000
vt 0.500000 0.000000
vt 0.500000 1.000000
vt 0.500000 0.750000
vt 0.500000 0.250000
vt 0.625000 0.625000
vt 0.375000 0.875000
vt 0.625000 0.125000
vt 0.375000 0.625000
vt 0.500000 0.375000
vt 0.500000 0.625000
vt 0.500000 0.125000
vt 0.500000 0.875000
vt 0.625000 0.500000
vt 0.625000 0.750000
vt 0.625000 0.250000
vt 0.625000 1.000000
vt 0.625000 0.000000
vt 0.625000 0.250000
vt 0.625000 0.625000
vt 0.625000 0.125000
vt 0.625000 0.750000
vt 0.500000 0.375000
vt 0.500000 0.875000
vt 0.625000 0.500000
vt 0.625000 0.500000
vt 0.625000 0.750000
vt 0.625000 0.250000
vt 0.625000 1.000000
vt 0.625000 0.000000
vt 0.625000 0.625000
vt 0.625000 0.125000
vt 0.500000 0.375000
vt 0.500000 0.875000
vt 0.625000 0.000000
vt 0.875000 0.750000
vt 0.625000 1.000000
vt 0.625000 0.875000
vt 0.750000 0.750000
vt 0.625000 0.625000
vt 0.625000 0.125000
vt 0.875000 0.625000
vt 0.625000 0.375000
vt 0.750000 0.500000
vt 0.500000 0.375000
vt 0.500000 0.875000
vt 0.750000 0.625000
vt 0.375000 0.500000
vt 0.375000 0.750000
vt 0.125000 0.500000
vt 0.375000 0.250000
vt 0.375000 0.000000
vt 0.125000 0.750000
vt 0.375000 1.000000
vt 0.375000 0.125000
vt 0.125000 0.625000
vt 0.250000 0.500000
vt 0.375000 0.375000
vt 0.250000 0.750000
vt 0.375000 0.875000
vt 0.375000 0.625000
vt 0.250000 0.625000
s 0
usemtl Material
f 15/18/1 1/1/1 23/26/1 28/32/1
f 3/3/1 15/18/1 28/32/1 24/27/1
f 14/17/2 21/24/2 17/20/2 5/5/2
f 4/4/3 16/19/3 56/72/3 51/61/3
f 20/23/1 15/18/1 3/3/1 13/16/1
f 1/1/4 19/22/4 31/35/4 23/26/4
f 10/12/5 19/22/5 11/13/5
f 14/17/6 19/22/6 10/12/6
f 17/20/2 7/7/2 26/30/2 29/33/2
f 18/21/7 20/23/7 13/16/7 4/4/7
f 2/2/8 11/13/8 20/23/8 18/21/8
f 11/13/1 1/1/1 15/18/1 20/23/1
f 9/11/9 6/6/9 52/63/9 54/67/9
f 18/21/10 4/4/10 51/61/10 57/73/10
f 8/9/11 9/11/11 54/67/11 53/64/11
f 9/11/12 21/24/12 14/17/12 6/6/12
f 8/9/13 12/14/13 21/24/13 9/11/13
f 12/14/2 7/7/2 17/20/2 21/24/2
f 16/19/14 22/25/14 12/15/14
f 13/16/15 22/25/15 16/19/15
f 5/5/2 17/20/2 29/33/2 25/28/2
f 22/25/16 3/3/16 24/27/16 32/36/16
f 19/22/17 5/5/17 25/28/17 31/35/17
f 12/15/18 22/25/18 7/8/18
f 13/16/19 3/3/19 22/25/19
f 8/10/20 16/19/20 12/15/20
f 4/4/21 13/16/21 16/19/21
f 11/13/22 19/22/22 1/1/22
f 14/17/23 5/5/23 19/22/23
f 2/2/24 10/12/24 11/13/24
f 6/6/25 14/17/25 10/12/25
f 7/8/26 22/25/26 32/36/26 26/29/26
f 26/29/27 32/36/27 41/46/27 37/41/27
f 28/32/28 23/26/28 34/38/28 38/43/28
f 23/26/29 31/35/29 40/45/29 34/38/29
f 25/28/30 29/33/30 39/44/30 36/40/30
f 24/27/28 28/32/28 38/43/28 35/39/28
f 32/36/31 24/27/31 35/39/31 41/46/31
f 29/33/30 26/30/30 37/42/30 39/44/30
f 31/35/32 25/28/32 36/40/32 40/45/32
f 37/41/33 41/46/33 48/58/33 42/49/33
f 38/43/2 34/38/2 33/37/2 44/52/2
f 34/38/34 40/45/34 47/57/34 33/37/34
f 36/40/1 39/44/1 45/53/1 27/31/1
f 35/39/2 38/43/2 44/52/2 30/34/2
f 41/46/35 35/39/35 30/34/35 48/58/35
f 39/44/1 37/42/1 42/47/1 45/53/1
f 40/45/36 36/40/36 27/31/36 47/57/36
f 49/59/37 45/54/37 42/48/37 43/51/37
f 48/58/38 43/50/38 42/49/38
f 47/57/39 46/55/39 33/37/39
f 27/31/39 46/55/39 47/57/39
f 30/34/38 43/50/38 48/58/38
f 44/52/37 49/59/37 43/51/37 30/34/37
f 33/37/40 46/56/40 49/59/40 44/52/40
f 46/56/40 27/31/40 45/54/40 49/59/40
f 58/74/41 57/73/41 51/61/41 56/71/41
f 54/68/42 58/74/42 56/71/42 53/65/42
f 52/62/43 55/69/43 58/74/43 54/68/43
f 55/69/44 50/60/44 57/73/44 58/74/44
f 6/6/45 10/12/45 55/70/45 52/63/45
f 10/12/46 2/2/46 50/60/46 55/70/46
f 2/2/47 18/21/47 57/73/47 50/60/47
f 16/19/48 8/10/48 53/66/48 56/72/48
