# Blender 3.4.1
# www.blender.org
mtllib book tab.mtl
o Cube
v 1.000000 1.000000 -1.000000
v 0.000000 1.000000 -1.000000
v 1.000000 0.184700 0.669825
v -1.000000 1.000000 0.000000
v -1.000000 1.000000 -1.000000
v 1.000000 1.000000 0.000000
v -1.000000 0.184700 0.669825
v 0.000000 0.184700 0.669825
v 0.000000 1.000000 0.000000
v 1.000000 0.184700 1.374485
v -1.000000 0.184700 1.374485
v 0.000000 0.184700 1.374485
v 1.000000 0.184700 2.189847
v -1.000000 0.184700 2.189847
vn -0.0000 0.6348 0.7727
vn -0.0000 1.0000 -0.0000
vt 0.625000 0.500000
vt 0.750000 0.500000
vt 0.625000 0.750000
vt 0.875000 0.625000
vt 0.875000 0.500000
vt 0.625000 0.625000
vt 0.875000 0.750000
vt 0.750000 0.750000
vt 0.750000 0.625000
vt 0.000000 0.000000
vt 0.000000 0.000000
vt 0.000000 0.000000
vt 0.000000 0.000000
vt 0.000000 0.000000
s 0
usemtl Material
f 9/9/1 4/4/1 7/7/1 8/8/1
f 1/1/2 2/2/2 9/9/2 6/6/2
f 6/6/1 9/9/1 8/8/1 3/3/1
f 2/2/2 5/5/2 4/4/2 9/9/2
f 8/8/2 12/12/2 10/10/2 3/3/2
f 8/8/2 7/7/2 11/11/2 12/12/2
f 12/12/2 11/11/2 14/14/2
f 12/12/2 13/13/2 10/10/2
