# Blender 3.4.1
# www.blender.org
mtllib book decoration paused.mtl
o Cube.001
v 4.826693 -1.127393 5.387663
v 3.826693 -0.719743 5.052751
v 4.826693 -0.719743 5.052751
v 3.826693 -1.127393 5.387663
v 4.326693 -1.127393 5.387663
v 4.326693 -0.719743 5.052751
v 4.826693 -1.127393 5.739993
v 3.826693 -1.127393 5.739993
v 4.326693 -1.127393 5.739993
v 4.826693 -1.127393 6.042427
v 3.826693 -1.127393 6.042427
vn -0.0000 0.6348 0.7727
vn -0.0000 1.0000 -0.0000
vt 0.494998 0.351130
vt 0.227229 0.199525
vt 0.494998 0.199525
vt 0.227229 0.351130
vt 0.360557 0.351130
vt 0.360557 0.199525
vt 0.494998 0.366900
vt 0.227229 0.366900
vt 0.360557 0.366900
vt 0.494998 0.384316
vt 0.227229 0.384316
s 0
usemtl Material
f 6/6/1 2/2/1 4/4/1 5/5/1
f 3/3/1 6/6/1 5/5/1 1/1/1
f 5/5/2 9/9/2 7/7/2 1/1/2
f 5/5/2 4/4/2 8/8/2 9/9/2
f 9/9/2 8/8/2 11/11/2
f 9/9/2 10/10/2 7/7/2
o Cube.000
v 6.180000 -1.225824 -4.940000
v 4.826693 -1.127393 5.387663
v -6.042828 -1.192890 4.990000
v 3.826693 -0.719743 5.052751
v -0.482828 -0.747110 4.990000
v 4.826693 -0.719743 5.052751
v 3.826693 -1.127393 5.387663
v -6.010985 -0.463584 4.990000
v -6.042828 -1.192890 -5.010000
v 4.326693 -1.127393 5.387663
v 4.326693 -0.719743 5.052751
v 6.180000 -1.381142 -4.940000
v -6.010985 -0.463584 -5.010000
v 4.826693 -1.127393 5.739993
v 6.180000 -1.225826 5.060000
v 3.826693 -1.127393 5.739993
v -0.450986 -1.476416 -5.010000
v 4.326693 -1.127393 5.739993
v 4.826693 -1.127393 6.042427
v 0.482828 -0.747110 4.990000
v 3.826693 -1.127393 6.042427
v 6.180000 -1.381144 5.060000
v 0.450986 -1.476416 -5.010000
v -0.482828 -0.747110 -5.010000
v -6.180000 -1.225824 -4.940000
v 0.482828 -0.747110 -5.010000
v 6.042828 -1.192890 4.990000
v -6.180000 -1.381142 -4.940000
v 6.010985 -0.463584 4.990000
v -6.180000 -1.225826 5.060000
v 6.042828 -1.192890 -5.010000
v 6.010985 -0.463584 -5.010000
v -6.180000 -1.381144 5.060000
v 0.000000 -1.431652 5.060000
v 6.180000 -1.225825 0.060000
v -6.180000 -1.225825 0.060000
v -1.030000 -1.308667 5.060000
v 1.030000 -1.308667 5.060000
v -6.180000 -1.381143 0.060000
v 0.000000 -1.614451 -4.940000
v 0.000000 -1.614453 5.060000
v 6.180000 -1.381143 0.060000
v 0.000000 -1.614452 0.060000
v -0.014420 -1.429537 4.990000
v 0.000000 -1.430287 4.990000
v -0.455331 -1.376891 4.990000
v 4.768465 -1.248530 -4.940000
v -0.450986 -1.476416 -4.940000
v 5.001341 -1.238362 3.915671
v 5.001360 -1.238361 0.060000
v 0.014420 -1.429537 4.990000
v 4.782654 -1.247910 4.990000
v 1.030000 -1.308274 4.990000
v 4.768443 -1.248531 -1.310444
v 4.690452 -1.251936 0.060000
v -5.001360 -1.238361 0.060000
v -5.001341 -1.238362 3.915671
v -4.782654 -1.247910 4.990000
v -1.030000 -1.308274 4.990000
v -0.000000 -1.456725 -4.940000
v 0.452708 -1.436960 -4.940000
v -4.768465 -1.248530 -4.940000
v 0.450986 -1.476416 -4.940000
v -0.452708 -1.436960 -4.940000
v 0.453763 -1.412802 4.990000
v -4.768443 -1.248531 -1.310444
v -4.832759 -1.245722 0.060000
v -0.457201 -1.334069 4.990000
v -0.452708 -1.436960 -5.010000
v 0.000000 -1.456725 -5.010000
v 0.452708 -1.436960 -5.010000
v 0.000000 -0.726030 -5.010000
v 0.000000 -0.726030 4.990000
v 0.455331 -1.376891 4.990000
v 0.077332 -1.417850 4.990000
v 0.092451 -1.420220 4.990000
v -0.312606 -1.356732 4.990000
vn 0.0128 0.9999 0.0010
vn -0.0000 -0.0000 1.0000
vn -1.0000 -0.0000 -0.0000
vn 0.0377 -0.9993 -0.0000
vn 1.0000 -0.0000 -0.0000
vn -0.0000 -0.0000 -1.0000
vn -0.0128 0.9999 -0.0002
vn -0.0161 0.9999 -0.0000
vn -0.0175 0.9998 0.0015
vn 0.0159 0.9999 -0.0006
vn -0.0377 -0.9993 -0.0000
vn -0.9990 -0.0436 -0.0000
vn 0.9990 0.0436 -0.0000
vn -0.0000 0.0001 1.0000
vn 0.0436 -0.9990 -0.0000
vn -0.0436 0.9990 -0.0000
vn -0.9990 0.0436 -0.0000
vn 0.9990 -0.0436 -0.0000
vn -0.0436 -0.9990 -0.0000
vn 0.0436 0.9990 -0.0000
vn -0.0000 0.6348 0.7727
vn -0.0000 1.0000 -0.0000
vt 0.250000 0.687500
vt 0.494998 0.351130
vt 0.557804 0.825371
vt 0.968803 0.825371
vt 0.866054 0.928121
vt 0.227229 0.199525
vt 0.581933 0.844943
vt 0.881304 0.728550
vt 0.494998 0.199525
vt 0.227229 0.351130
vt 0.557804 0.722622
vt 0.968803 0.722622
vt 0.866054 0.619872
vt 0.660554 0.825371
vt 0.763304 0.928121
vt 0.360557 0.351130
vt 0.360557 0.199525
vt 0.250000 0.812500
vt 0.660554 0.722622
vt 0.763304 0.619872
vt 0.494998 0.366900
vt 0.362500 0.687500
vt 0.227229 0.366900
vt 0.850298 0.755488
vt 0.760843 0.666033
vt 0.360557 0.366900
vt 0.494998 0.384316
vt 0.595210 0.839781
vt 0.227229 0.384316
vt 0.362500 0.812500
vt 0.763304 0.825371
vt 0.850298 0.844943
vt 0.748054 0.728550
vt 0.137500 0.687500
vt 0.250000 0.562500
vt 0.837021 0.839781
vt 0.671388 0.755488
vt 0.137500 0.812500
vt 0.250000 0.937500
vt 0.671388 0.844943
vt 0.362500 0.562500
vt 0.475000 0.687500
vt 0.025000 0.687500
vt 0.760843 0.755488
vt 0.760843 0.844943
vt 0.475000 0.812500
vt 0.025000 0.812500
vt 0.362500 0.937500
vt 0.418750 0.687500
vt 0.362500 0.625000
vt 0.306250 0.687500
vt 0.081250 0.687500
vt 0.306250 0.562500
vt 0.362500 0.593750
vt 0.446875 0.687500
vt 0.390625 0.687500
vt 0.362500 0.656250
vt 0.081250 0.812500
vt 0.306250 0.937500
vt 0.193750 0.812500
vt 0.250000 0.875000
vt 0.418750 0.812500
vt 0.362500 0.875000
vt 0.306250 0.812500
vt 0.306250 0.875000
vt 0.361713 0.624687
vt 0.587964 0.758894
vt 0.361713 0.625000
vt 0.588162 0.758725
vt 0.361712 0.611893
vt 0.581933 0.767696
vt 0.880435 0.816941
vt 0.242291 0.687500
vt 0.250000 0.678935
vt 0.760217 0.737933
vt 0.185183 0.743800
vt 0.850924 0.755488
vt 0.760217 0.666033
vt 0.349626 0.678990
vt 0.680999 0.741141
vt 0.306250 0.680348
vt 0.715489 0.741142
vt 0.361713 0.625313
vt 0.588361 0.758740
vt 0.361712 0.678884
vt 0.654029 0.755488
vt 0.671388 0.738129
vt 0.361712 0.654630
vt 0.602397 0.768157
vt 0.290833 0.677182
vt 0.727749 0.737933
vt 0.306249 0.678460
vt 0.715489 0.736859
vt 0.306250 0.569652
vt 0.815398 0.911642
vt 0.349626 0.570535
vt 0.855015 0.911642
vt 0.361712 0.571068
vt 0.948864 0.825371
vt 0.866054 0.908182
vt 0.361712 0.595366
vt 0.889558 0.810820
vt 0.190118 0.738935
vt 0.760217 0.672246
vt 0.764023 0.832507
vt 0.195071 0.734052
vt 0.760217 0.678482
vt 0.764023 0.819813
vt 0.145209 0.687500
vt 0.250000 0.571065
vt 0.764023 0.907957
vt 0.195744 0.753446
vt 0.764023 0.825371
vt 0.183645 0.721391
vt 0.850924 0.760328
vt 0.764023 0.839670
vt 0.361713 0.637983
vt 0.290832 0.572455
vt 0.801317 0.907957
vt 0.306250 0.570676
vt 0.815398 0.908975
vt 0.581933 0.772948
vt 0.880494 0.810931
vt 0.850298 0.760328
vt 0.749005 0.825371
vt 0.763304 0.839670
vt 0.844085 0.755488
vt 0.760843 0.672246
vt 0.756168 0.825371
vt 0.763304 0.832507
vt 0.837849 0.755488
vt 0.760843 0.678482
vt 0.763304 0.819813
vt 0.843647 0.844943
vt 0.760843 0.927747
vt 0.755664 0.722622
vt 0.763304 0.714982
vt 0.588585 0.844943
vt 0.671388 0.927747
vt 0.873693 0.722622
vt 0.866054 0.714982
vt 0.361712 0.638041
vt 0.594454 0.762828
vt 0.589233 0.759834
vt 0.361713 0.627566
vt 0.589439 0.759463
vt 0.583908 0.769401
s 0
usemtl Material.001
f 68/107/3 67/105/3 47/64/3 41/52/3 48/65/3 45/61/3 56/79/3 55/77/3 57/81/3 70/112/3 69/109/3
f 52/73/4 33/41/4 26/33/4 49/67/4 45/60/4 48/66/4 41/53/4 44/57/4
f 50/69/5 44/58/5 41/54/5 47/63/5 36/45/5 39/49/5
f 54/76/6 53/75/6 33/41/6 52/74/6
f 53/75/7 23/29/7 12/12/7 46/62/7 26/33/7 33/41/7
f 58/84/8 12/12/8 23/29/8 51/71/8 39/49/8 36/45/8 73/120/8 75/125/8 59/87/8 71/114/8 74/123/8 72/117/8
f 56/79/9 45/61/9 49/68/9 26/33/9 46/62/9 61/92/9 60/90/9 63/96/9 64/99/9 85/153/9 76/128/9 62/94/9
f 62/94/4 76/128/4 85/153/4 87/156/4
f 66/103/8 61/92/8 46/62/8
f 46/62/10 12/12/10 58/85/10 65/101/10
f 65/101/11 66/103/11 46/62/11
f 77/129/12 73/121/12 36/46/12 47/64/12 67/105/12 78/131/12
f 50/70/13 54/76/13 52/74/13 44/59/13
f 39/50/13 51/72/13 54/76/13 50/70/13
f 51/72/6 23/29/6 53/75/6 54/76/6
f 22/28/23 15/17/23 18/21/23 21/27/23
f 17/20/23 22/28/23 21/27/23 13/13/23
f 21/27/24 29/37/24 25/32/24 13/13/24
f 21/27/24 18/21/24 27/34/24 29/37/24
f 29/37/24 27/34/24 32/40/24
f 29/37/24 30/38/24 25/32/24
usemtl 
f 80/135/14 28/35/14 59/88/14 75/126/14
f 37/47/8 83/145/8 43/56/8 42/55/8 82/142/8
f 81/138/8 28/35/8 80/135/8
f 83/145/8 37/47/8 82/142/8 81/138/8 80/135/8 35/43/8
f 42/55/15 43/56/15 40/51/15 38/48/15
f 64/100/4 63/97/4 38/48/4 40/51/4 84/149/4 31/39/4 85/154/4
f 79/133/4 57/82/4 88/158/4
f 88/158/4 57/82/4 55/78/4 56/80/4 86/155/4 87/157/4 85/154/4 31/39/4 84/149/4 16/18/4 79/133/4
f 86/155/16 56/80/16 62/95/16 87/157/16
f 59/89/17 28/36/17 81/139/17 71/115/17
f 58/86/17 72/118/17 82/143/17 42/55/17 38/48/17 63/98/17 60/91/17 61/93/17 66/104/17 65/102/17
f 40/51/18 43/56/18 83/146/18 84/150/18
f 14/14/19 19/22/19 24/30/19 20/25/19
f 35/44/8 80/136/8 20/25/8 24/30/8 83/147/8
f 34/42/8 81/140/8 82/144/8
f 72/119/20 74/124/20 34/42/20 82/144/20
f 79/134/4 16/19/4 84/151/4 19/23/4 14/15/4 69/110/4 70/113/4 57/83/4
f 71/116/21 81/141/21 34/42/21 74/124/21
f 77/130/21 78/132/21 67/106/21 68/108/21 69/111/21 14/16/21 20/26/21 80/137/21 75/127/21 73/122/21
f 83/148/22 24/31/22 19/24/22 84/152/22
o Cube.001a
v -4.507107 -1.127393 5.387663
v -5.507107 -0.719743 5.052751
v -4.507107 -0.719743 5.052751
v -5.507107 -1.127393 5.387663
v -5.007107 -1.127393 5.387663
v -5.007107 -0.719743 5.052751
v -4.507107 -1.127393 5.739993
v -5.507107 -1.127393 5.739993
v -5.007107 -1.127393 5.739993
v -4.507107 -1.127393 6.042427
v -5.507107 -1.127393 6.042427
vn -0.0000 0.6348 0.7727
vn -0.0000 1.0000 -0.0000
vt 0.881398 0.182159
vt 0.613629 0.030553
vt 0.881398 0.030553
vt 0.613629 0.182159
vt 0.746957 0.182159
vt 0.746957 0.030553
vt 0.881398 0.197929
vt 0.613629 0.197929
vt 0.746957 0.197929
vt 0.881398 0.215345
vt 0.613629 0.215345
s 0
usemtl Material.002
f 94/164/25 90/160/25 92/162/25 93/163/25
f 91/161/25 94/164/25 93/163/25 89/159/25
f 93/163/26 97/167/26 95/165/26 89/159/26
f 93/163/26 92/162/26 96/166/26 97/167/26
f 97/167/26 96/166/26 99/169/26
f 97/167/26 98/168/26 95/165/26
o Cube.001b
v -2.948615 -1.127393 5.387663
v -3.948615 -0.719743 5.052751
v -2.948615 -0.719743 5.052751
v -3.948615 -1.127393 5.387663
v -3.448615 -1.127393 5.387663
v -3.448615 -0.719743 5.052751
v -2.948615 -1.127393 5.739993
v -3.948615 -1.127393 5.739993
v -3.448615 -1.127393 5.739993
v -2.948615 -1.127393 6.042427
v -3.948615 -1.127393 6.042427
vn -0.0000 0.6348 0.7727
vn -0.0000 1.0000 -0.0000
vt 0.881398 0.439492
vt 0.613629 0.287886
vt 0.881398 0.287886
vt 0.613629 0.439492
vt 0.746957 0.439492
vt 0.746957 0.287886
vt 0.881398 0.455261
vt 0.613629 0.455261
vt 0.746957 0.455261
vt 0.881398 0.472677
vt 0.613629 0.472677
s 0
usemtl Material.003
f 105/175/27 101/171/27 103/173/27 104/174/27
f 102/172/27 105/175/27 104/174/27 100/170/27
f 104/174/28 108/178/28 106/176/28 100/170/28
f 104/174/28 103/173/28 107/177/28 108/178/28
f 108/178/28 107/177/28 110/180/28
f 108/178/28 109/179/28 106/176/28
