# Blender 3.4.1
# www.blender.org
mtllib cannon_base.mtl
o Cube
v 0.000000 0.686054 -0.000000
v -0.086412 0.359599 0.085573
v 0.000000 0.686054 0.128617
v -0.086412 0.359599 -0.085573
v 0.128617 0.686054 -0.000000
v 0.086412 0.359599 0.085573
v 0.000000 0.686054 -0.128617
v 0.086412 0.359599 -0.085573
v -0.128617 0.686054 -0.000000
v -0.211274 0.355039 0.209224
v -0.128617 0.359599 -0.000000
v -0.211274 0.355039 -0.209224
v 0.086412 0.686054 -0.085573
v 0.000000 0.359599 -0.128617
v 0.211274 0.355039 -0.209224
v 0.086412 0.686054 0.085573
v 0.128617 0.359599 -0.000000
v 0.211274 0.355039 0.209224
v -0.086412 0.686054 -0.085573
v 0.000000 0.359599 0.128617
v -0.086412 0.686054 0.085573
v 0.000000 0.355039 0.314466
v 0.314466 0.355039 0.000000
v 0.000000 0.355039 -0.314466
v -0.314466 0.355039 0.000000
v -0.211274 0.232000 0.209224
v -0.211274 0.232000 -0.209224
v 0.211274 0.232000 0.209224
v 0.211274 0.232000 -0.209224
v -0.314466 0.232000 0.000000
v -0.211274 0.355039 0.209224
v -0.211274 0.355039 -0.209224
v 0.000000 0.232000 -0.314466
v 0.211274 0.355039 -0.209224
v 0.314466 0.232000 0.000000
v 0.211274 0.355039 0.209224
v 0.000000 0.232000 0.314466
v 0.000000 0.232000 0.000000
v 0.000000 0.355039 0.314466
v 0.314466 0.355039 0.000000
v 0.000000 0.355039 -0.314466
v -0.314466 0.355039 0.000000
vn -0.0245 0.9996 -0.0121
vn 0.0122 0.9996 -0.0245
vn 0.0245 0.9996 0.0121
vn -0.0122 0.9996 0.0245
vn -0.0000 1.0000 -0.0000
vn 0.4459 -0.0000 0.8951
vn -0.8968 -0.0000 0.4423
vn 0.4459 -0.0000 -0.8951
vn 0.8968 -0.0000 -0.4423
vn 0.0122 0.9996 0.0245
vn 0.0245 0.9996 -0.0121
vn -0.0122 0.9996 -0.0245
vn -0.0245 0.9996 0.0121
vn -0.0000 -1.0000 -0.0000
vn -0.4459 -0.0000 0.8951
vn 0.8968 -0.0000 0.4423
vn -0.4459 -0.0000 -0.8951
vn -0.8968 -0.0000 -0.4423
vt 0.750000 0.625000
vt 0.625000 0.000000
vt 0.625000 1.000000
vt 0.750000 0.750000
vt 0.625000 0.875000
vt 0.625000 0.250000
vt 0.625000 0.625000
vt 0.625000 0.750000
vt 0.750000 0.500000
vt 0.625000 0.375000
vt 0.625000 0.500000
vt 0.875000 0.625000
vt 0.625000 0.125000
vt 0.500000 1.000000
vt 0.500000 0.000000
vt 0.625000 0.125000
vt 0.500000 0.250000
vt 0.625000 0.500000
vt 0.625000 0.375000
vt 0.500000 0.500000
vt 0.625000 0.750000
vt 0.625000 0.625000
vt 0.500000 0.750000
vt 0.875000 0.500000
vt 0.625000 0.250000
vt 0.625000 0.875000
vt 0.625000 0.000000
vt 0.875000 0.750000
vt 0.625000 1.000000
vt 0.500000 0.875000
vt 0.500000 0.625000
vt 0.500000 0.375000
vt 0.500000 0.125000
vt 0.125000 0.750000
vt 0.375000 1.000000
vt 0.375000 0.000000
vt 0.125000 0.500000
vt 0.375000 0.250000
vt 0.375000 0.750000
vt 0.375000 0.500000
vt 0.125000 0.625000
vt 0.375000 0.125000
vt 0.500000 1.000000
vt 0.500000 0.000000
vt 0.500000 0.250000
vt 0.250000 0.500000
vt 0.375000 0.375000
vt 0.500000 0.500000
vt 0.375000 0.625000
vt 0.500000 0.750000
vt 0.250000 0.750000
vt 0.375000 0.875000
vt 0.250000 0.625000
vt 0.500000 0.875000
vt 0.500000 0.625000
vt 0.500000 0.375000
vt 0.500000 0.125000
s 0
f 25/33/1 11/16/1 4/6/1 12/17/1
f 24/32/2 14/19/2 8/11/2 15/20/2
f 23/31/3 17/22/3 6/8/3 18/23/3
f 22/30/4 20/26/4 2/3/4 10/14/4
f 7/9/5 19/24/5 9/12/5 1/1/5
f 20/26/6 6/8/6 16/21/6 3/5/6
f 11/16/7 2/2/7 21/27/7 9/13/7
f 8/11/8 14/19/8 7/10/8 13/18/8
f 17/22/9 8/11/9 13/18/9 5/7/9
f 13/18/5 7/9/5 1/1/5 5/7/5
f 5/7/5 1/1/5 3/4/5 16/21/5
f 1/1/5 9/12/5 21/28/5 3/4/5
f 18/23/5 22/30/5 39/54/5 36/50/5
f 25/33/5 12/17/5 32/45/5 42/57/5
f 18/23/10 6/8/10 20/26/10 22/30/10
f 15/20/5 23/31/5 40/55/5 34/48/5
f 12/17/5 24/32/5 41/56/5 32/45/5
f 15/20/11 8/11/11 17/22/11 23/31/11
f 22/30/5 10/14/5 31/43/5 39/54/5
f 10/15/5 25/33/5 42/57/5 31/44/5
f 12/17/12 4/6/12 14/19/12 24/32/12
f 23/31/5 18/23/5 36/50/5 40/55/5
f 24/32/5 15/20/5 34/48/5 41/56/5
f 10/15/13 2/2/13 11/16/13 25/33/13
f 38/53/14 35/49/14 28/39/14 37/51/14
f 30/41/14 38/53/14 37/51/14 26/34/14
f 27/37/14 33/46/14 38/53/14 30/41/14
f 33/46/14 29/40/14 35/49/14 38/53/14
f 37/52/15 39/54/15 31/43/15 26/35/15
f 28/39/6 36/50/6 39/54/6 37/52/6
f 35/49/16 40/55/16 36/50/16 28/39/16
f 29/40/9 34/48/9 40/55/9 35/49/9
f 33/47/8 41/56/8 34/48/8 29/40/8
f 27/38/17 32/45/17 41/56/17 33/47/17
f 30/42/18 42/57/18 32/45/18 27/38/18
f 26/36/7 31/44/7 42/57/7 30/42/7
f 6/8/16 17/22/16 5/7/16 16/21/16
f 14/19/17 4/6/17 19/25/17 7/10/17
f 4/6/18 11/16/18 9/13/18 19/25/18
f 2/3/15 20/26/15 3/5/15 21/29/15
