# Blender 3.4.1
# www.blender.org
mtllib treasurechestbottom.mtl
o Cube.001
v 0.400000 -0.350000 -0.800000
v 0.400000 -0.350000 0.800000
v -0.400000 -0.350000 -0.800000
v -0.400000 -0.350000 0.800000
v 0.400000 0.039257 -0.714528
v 0.400000 -0.350000 -0.714528
v 0.400000 -0.350000 0.714528
v 0.400000 -0.042952 0.714528
v 0.400000 -0.042952 0.000000
v 0.400000 -0.042952 -0.714528
v 0.400000 -0.042952 -0.077655
v 0.400000 -0.042952 0.077655
v 0.400000 0.039257 -0.077655
v 0.400000 0.039257 0.077655
v 0.400000 -0.042952 0.000000
v 0.400000 -0.001032 0.077655
v 0.400000 -0.001032 -0.077655
v -0.400000 -0.350000 0.000000
v -0.400000 -0.350000 0.714528
v -0.400000 -0.350000 -0.714528
v 0.400000 -0.003921 -0.714528
v 0.400000 -0.003921 0.714528
v 0.400000 0.039608 0.800000
v 0.400000 0.039608 -0.800000
v 0.400000 0.041221 0.714528
v 0.400000 0.041221 -0.715827
v -0.400000 0.045711 0.800000
v -0.400000 0.045711 -0.800000
v -0.400000 0.045711 -0.736897
v -0.400000 0.045711 0.000000
v -0.400000 0.045711 0.723830
v 0.354353 0.039678 -0.624833
v 0.354353 0.039678 -0.075175
v 0.354353 0.039678 0.058867
v 0.354353 0.039981 0.735255
v 0.354353 0.039981 -0.751563
v 0.354353 0.041373 0.721887
v 0.354353 0.041373 -0.717626
v -0.336094 0.045249 0.735255
v -0.336094 0.045249 -0.751563
v -0.336094 0.045249 -0.736290
v -0.336094 0.045249 -0.008154
v -0.336094 0.045249 0.721887
v 0.354353 -0.293819 -0.624833
v 0.354353 -0.293819 -0.075175
v 0.354353 -0.293819 0.058867
v 0.354353 -0.293516 0.735255
v 0.354353 -0.293516 -0.751563
v 0.354353 -0.292124 0.608525
v 0.354353 -0.292124 -0.624833
v -0.336094 -0.288248 0.735255
v -0.336094 -0.288248 -0.751563
v -0.336094 -0.288248 -0.624833
v -0.336094 -0.288248 -0.008154
v -0.336094 -0.288248 0.608525
vn 1.0000 -0.0000 -0.0000
vn -0.0000 -1.0000 -0.0000
vn -0.0000 -0.0000 -1.0000
vn -0.0000 -0.0000 1.0000
vn -1.0000 -0.0000 -0.0000
vn 0.0076 1.0000 -0.0005
vn 0.0076 1.0000 0.0004
vn 0.0072 1.0000 -0.0000
vn 0.0066 1.0000 -0.0028
vn -0.0072 0.9997 -0.0254
vn 0.0092 1.0000 -0.0000
vn -0.0134 0.9994 0.0304
vn 0.0063 1.0000 0.0029
vn -0.0436 -0.9983 -0.0388
vn 0.0074 1.0000 -0.0000
vt 0.878985 0.044640
vt 0.740496 0.044640
vt 0.947151 0.044640
vt 0.648305 0.044640
vt 0.829736 0.044640
vt 0.000000 0.000000
vt 0.308785 0.044640
vt 0.836835 0.044640
vt 0.038778 0.044640
vt 0.787068 0.044640
vt 0.787068 0.171133
vt 0.038778 0.171133
vt 0.836835 0.171132
vt 0.308785 0.171132
vt 0.280203 0.173706
vt 0.073065 0.172864
vt 0.000000 0.000000
vt 0.000000 0.000000
vt 0.173143 0.171470
vt 0.000000 0.000000
vt 0.000000 0.000000
vt 0.347603 0.044640
vt 0.815103 0.044640
vt 0.362236 0.044640
vt 0.332970 0.044640
vt 0.961784 0.044640
vt 0.836835 0.223388
vt 0.125295 0.093172
vt 0.787068 0.223388
vt 0.444475 0.220288
vt 0.740496 0.212398
vt 0.661436 0.218599
vt 0.878985 0.212398
vt 0.799925 0.218599
vt 0.787068 0.249516
vt 0.708008 0.255717
vt 0.075528 0.119300
vt 0.757775 0.255717
vt 0.125295 0.119300
vt 0.836835 0.249516
vt 0.829736 0.212398
vt 0.648305 0.212398
vt 0.750676 0.218598
vt 0.947151 0.212398
vt 0.868091 0.218599
vt 0.961784 0.212398
vt 0.332970 0.212398
vt 0.882724 0.218599
vt 0.347603 0.212398
vt 0.815103 0.212398
vt 0.736043 0.218599
vt 0.362236 0.212398
vt 0.000000 0.000000
vt 0.000000 0.000000
vt 0.113164 0.189124
vt 0.000000 0.000000
vt 0.113164 0.189124
vt 0.661436 0.218599
vt 0.030506 0.091483
vt 0.740496 0.212398
vt 0.799925 0.218599
vt 0.168995 0.091483
vt 0.878985 0.212398
vt 0.075528 0.119300
vt 0.708008 0.255717
vt 0.077078 0.128601
vt 0.757775 0.255717
vt 0.125295 0.119300
vt 0.836835 0.249516
vt 0.126845 0.128601
vt 0.750676 0.218598
vt 0.119746 0.091482
vt 0.648305 0.212398
vt 0.868091 0.218599
vt 0.237161 0.091483
vt 0.947151 0.212398
vt 0.882724 0.218599
vt 0.332970 0.212398
vt 0.251794 0.091483
vt 0.347603 0.212398
vt 0.736043 0.218599
vt 0.105113 0.091482
vt 0.362236 0.212398
vt 0.000000 0.000000
vt 0.063558 0.328642
vt 0.113164 0.189124
vt 0.000000 0.000000
vt 0.063558 0.328642
vt 0.113164 0.189124
vt 0.063558 0.328642
vt 0.030506 0.091483
vt 0.740496 0.212398
vt 0.064611 0.212398
vt 0.168995 0.091483
vt 0.878985 0.212398
vt 0.203100 0.212398
vt 0.077078 0.128601
vt 0.111183 0.249516
vt 0.126845 0.128601
vt 0.836835 0.249516
vt 0.160950 0.249516
vt 0.119746 0.091482
vt 0.648305 0.212398
vt 0.153850 0.212398
vt 0.237161 0.091483
vt 0.947151 0.212398
vt 0.271265 0.212398
vt 0.332970 0.212398
vt 0.251794 0.091483
vt 0.285898 0.212398
vt 0.347603 0.212398
vt 0.214286 0.339514
vt 0.105113 0.091482
vt 0.362236 0.212398
vt 0.139218 0.212398
s 0
usemtl Material.001
f 7/9/1 6/7/1 10/14/1 11/15/1 15/19/1 12/16/1 8/12/1
f 6/8/2 20/26/2 3/3/2 1/1/2
f 19/24/2 18/22/2 20/25/2 6/7/2 7/9/2
f 4/4/2 19/23/2 7/10/2 2/2/2
f 1/1/1 24/33/1 26/40/1 21/27/1 10/13/1 6/8/1
f 7/10/1 8/11/1 22/29/1 25/35/1 23/31/1 2/2/1
f 3/3/3 28/44/3 24/33/3 1/1/3
f 2/2/4 23/31/4 27/42/4 4/4/4
f 4/5/5 27/41/5 31/50/5 19/23/5
f 19/24/5 31/52/5 30/49/5 18/22/5
f 18/22/5 30/49/5 29/47/5 20/25/5
f 20/26/5 29/46/5 28/44/5 3/3/5
f 21/28/1 26/39/1 5/6/1 13/17/1 17/21/1 11/15/1 10/14/1
f 24/33/6 28/44/6 40/76/6 36/63/6
f 27/42/7 23/31/7 35/60/7 39/73/7
f 31/51/8 27/43/8 39/71/8 43/81/8
f 30/49/8 31/52/8 43/83/8 42/80/8
f 25/37/9 14/18/9 34/56/9 37/64/9
f 29/47/8 30/49/8 42/80/8 41/78/8
f 26/38/10 24/34/10 36/61/10 38/67/10
f 14/18/11 13/17/11 33/54/11 34/56/11
f 28/45/8 29/48/8 41/77/8 40/74/8
f 23/32/12 25/36/12 37/65/12 35/58/12
f 13/17/13 26/39/13 38/68/13 33/54/13
f 13/17/11 5/6/11 32/53/11 33/54/11
f 26/40/14 5/6/14 32/53/14 38/69/14
f 43/82/1 39/72/1 51/102/1 55/113/1
f 42/80/1 43/83/1 55/114/1 54/111/1
f 41/78/1 42/80/1 54/111/1 53/108/1
f 33/54/5 32/53/5 44/84/5 45/87/5
f 40/75/1 41/79/1 53/109/1 52/105/1
f 38/70/5 36/62/5 48/94/5 50/99/5
f 38/69/1 32/53/1 44/84/1 50/100/1
f 35/59/5 37/66/5 49/97/5 47/91/5
f 37/66/5 34/57/5 46/89/5 49/97/5
f 36/63/4 40/76/4 52/106/4 48/95/4
f 34/57/5 33/55/5 45/86/5 46/89/5
f 39/73/3 35/60/3 47/92/3 51/103/3
f 33/55/5 38/70/5 50/99/5 45/86/5
f 45/87/1 44/84/1 50/100/1
f 55/115/15 51/104/15 47/93/15 49/98/15 46/90/15 45/88/15 44/85/15 50/101/15 48/96/15 52/107/15 53/110/15 54/112/15
f 22/30/1 8/12/1 16/20/1
f 8/12/1 12/16/1 16/20/1
f 16/20/1 14/18/1 25/37/1 22/30/1
f 15/19/1 11/15/1 17/21/1 13/17/1 14/18/1 16/20/1 12/16/1
l 11 9
l 15 9
l 9 12
l 5 21
l 17 10
l 21 17
o Plane
v 0.185348 0.039588 -0.379260
v -0.185348 0.013476 -0.379260
v -0.185348 0.013476 0.379260
v 0.185348 0.016853 0.379260
v 0.185348 -0.007153 0.000000
v -0.185348 0.039588 0.000000
v -0.000000 -0.007153 0.379260
v -0.000000 0.014776 -0.379260
v 0.185348 -0.018234 -0.758519
v 0.370695 -0.001773 0.379260
v -0.185348 -0.048514 0.758519
v -0.370695 -0.001773 -0.379260
v -0.370695 -0.027825 0.379260
v 0.185348 -0.001773 0.758519
v 0.370695 -0.027885 -0.379260
v -0.185348 -0.027885 -0.758519
v -0.000000 0.013476 0.000000
v -0.000000 -0.001773 -0.758519
v 0.370695 0.003402 0.000000
v -0.000000 -0.027885 0.758519
v -0.370695 -0.027885 0.000000
v -0.370695 -0.001773 0.758519
v 0.370695 -0.027885 0.758519
v -0.370695 -0.001773 -0.758519
v 0.370695 -0.048514 -0.758519
v -0.370695 -0.001773 -0.568890
v -0.370695 -0.016629 0.189630
v -0.370695 -0.014829 -0.189630
v -0.370695 -0.025143 0.568890
v -0.185348 0.005661 -0.189630
v -0.185348 0.013476 -0.568890
v -0.185348 0.027076 0.568890
v -0.185348 -0.018253 0.189630
v -0.000000 0.003161 0.568890
v -0.000000 0.003161 -0.189630
v -0.000000 0.028232 0.189630
v 0.185348 -0.010001 -0.189630
v 0.185348 0.024228 -0.568890
v 0.185348 0.005784 0.568890
v 0.185348 0.006328 0.189630
v 0.370695 -0.014829 0.568890
v 0.370695 -0.024034 -0.189630
v 0.370695 -0.014829 0.189630
v 0.370695 -0.011771 -0.568890
v -0.000000 0.016217 -0.568890
vn 0.2133 0.9700 0.1170
vn -0.0310 0.9868 0.1592
vn 0.0225 0.9873 -0.1574
vn 0.0032 0.9987 0.0512
vn -0.0958 0.9939 0.0547
vn 0.0291 0.9937 -0.1084
vn 0.1191 0.9909 -0.0625
vn -0.2444 0.9688 -0.0416
vn -0.1736 0.9775 0.1201
vn 0.1051 0.9925 0.0631
vn -0.0717 0.9974 0.0020
vn 0.1137 0.9908 -0.0738
vn 0.0286 0.9995 0.0125
vn -0.0545 0.9921 0.1127
vn -0.0767 0.9851 -0.1542
vn 0.1724 0.9642 -0.2014
vn 0.1249 0.9907 0.0538
vn -0.0769 0.9919 0.1010
vn 0.0085 0.9626 0.2707
vn -0.0146 0.9905 0.1364
vn 0.1065 0.9924 -0.0617
vn -0.0057 0.9978 0.0654
vn -0.0696 0.9975 0.0096
vn -0.1063 0.9929 -0.0538
vn 0.0094 0.9968 -0.0796
vn 0.0907 0.9953 -0.0345
vn 0.0764 0.9904 -0.1155
vn -0.2305 0.9716 -0.0535
vn 0.2689 0.9632 0.0019
vn -0.0820 0.9966 -0.0000
vn -0.0881 0.9954 -0.0365
vn -0.0109 0.9999 0.0038
vt 0.362364 0.859977
vt 0.150875 0.859977
vt 0.150875 0.648488
vt 0.362364 0.648488
vt 0.362364 0.754232
vt 0.150875 0.754232
vt 0.256619 0.648488
vt 0.256619 0.859977
vt 0.362364 0.965721
vt 0.468108 0.648488
vt 0.150875 0.542743
vt 0.045130 0.859977
vt 0.045130 0.648488
vt 0.362364 0.542743
vt 0.468108 0.859977
vt 0.150875 0.965721
vt 0.256619 0.754232
vt 0.256619 0.965721
vt 0.468108 0.754232
vt 0.256619 0.542743
vt 0.045130 0.754232
vt 0.045130 0.542743
vt 0.468108 0.542743
vt 0.045130 0.965721
vt 0.468108 0.965721
vt 0.045130 0.912849
vt 0.045130 0.701360
vt 0.045130 0.807104
vt 0.045130 0.595615
vt 0.150875 0.807104
vt 0.150875 0.912849
vt 0.150875 0.595615
vt 0.150875 0.701360
vt 0.256619 0.595615
vt 0.256619 0.807104
vt 0.256619 0.701360
vt 0.362364 0.807104
vt 0.362364 0.912849
vt 0.362364 0.595615
vt 0.362364 0.701360
vt 0.468108 0.595615
vt 0.468108 0.807104
vt 0.468108 0.701360
vt 0.468108 0.912849
vt 0.256619 0.912849
s 0
f 92/152/16 97/157/16 70/130/16 56/116/16
f 90/150/17 92/152/17 56/116/17 63/123/17
f 100/160/18 93/153/18 64/124/18 73/133/18
f 85/145/19 90/150/19 63/123/19 57/117/19
f 83/143/20 85/145/20 57/117/20 67/127/20
f 81/141/21 86/146/21 71/131/21 79/139/21
f 87/147/22 89/149/22 62/122/22 58/118/22
f 84/144/23 87/147/23 58/118/23 68/128/23
f 82/142/24 88/148/24 61/121/24 76/136/24
f 94/154/25 96/156/25 65/125/25 59/119/25
f 89/149/26 94/154/26 59/119/26 62/122/26
f 91/151/27 95/155/27 60/120/27 72/132/27
f 95/155/28 98/158/28 74/134/28 60/120/28
f 88/148/29 91/151/29 72/132/29 61/121/29
f 86/146/30 100/160/30 73/133/30 71/131/30
f 93/153/31 99/159/31 80/140/31 64/124/31
f 69/129/32 78/138/32 96/156/32 94/154/32
f 75/135/33 69/129/33 94/154/33 89/149/33
f 66/126/34 75/135/34 89/149/34 87/147/34
f 77/137/35 66/126/35 87/147/35 84/144/35
f 59/119/36 65/125/36 98/158/36 95/155/36
f 62/122/37 59/119/37 95/155/37 91/151/37
f 58/118/38 62/122/38 91/151/38 88/148/38
f 68/128/39 58/118/39 88/148/39 82/142/39
f 60/120/40 74/134/40 97/157/40 92/152/40
f 72/132/41 60/120/41 92/152/41 90/150/41
f 61/121/42 72/132/42 90/150/42 85/145/42
f 76/136/43 61/121/43 85/145/43 83/143/43
f 56/116/44 70/130/44 99/159/44 93/153/44
f 67/127/45 57/117/45 86/146/45 81/141/45
f 63/123/46 56/116/46 93/153/46 100/160/46
f 57/117/47 63/123/47 100/160/47 86/146/47
