# Blender 3.4.1
# www.blender.org
mtllib treasurechesttop.mtl
o Cube.002
v 0.400000 0.350000 -0.800000
v 0.400000 0.038029 -0.800000
v 0.400000 0.350000 0.800000
v 0.400000 0.038029 0.800000
v -0.400000 0.350000 -0.800000
v -0.400000 0.038029 -0.800000
v -0.400000 0.350000 0.800000
v -0.400000 0.038029 0.800000
v 0.000000 0.556571 0.800000
v 0.400000 0.350000 0.000000
v -0.400000 0.350000 0.000000
v 0.000000 0.556571 -0.800000
v 0.000000 0.556571 0.000000
v -0.273093 0.495650 0.800000
v 0.400000 0.350000 0.714528
v -0.400000 0.350000 -0.714528
v 0.273093 0.495650 -0.800000
v 0.273093 0.495650 0.800000
v 0.400000 0.350000 -0.714528
v -0.400000 0.350000 0.714528
v -0.273093 0.495650 -0.800000
v 0.000000 0.556571 0.714528
v 0.000000 0.556571 -0.714528
v 0.273093 0.495650 0.000000
v -0.273093 0.495650 0.000000
v -0.273093 0.495650 -0.714528
v 0.273093 0.495650 -0.714528
v 0.273093 0.495650 0.714528
v -0.273093 0.495650 0.714528
v 0.400000 0.038029 -0.714528
v 0.400000 0.038029 0.714528
v 0.400000 0.000000 0.000000
v 0.400000 0.000000 -0.077655
v 0.400000 0.000000 0.077655
v 0.400000 0.350000 0.000000
v 0.400000 0.350000 -0.077655
v 0.400000 0.350000 0.077655
v 0.400000 0.000000 0.000000
v 0.400000 0.309711 0.077655
v 0.400000 0.309711 -0.077655
v 0.400000 0.309711 0.000000
v 0.449200 0.000000 -0.077655
v 0.449200 0.000000 0.077655
v 0.449200 0.000000 0.000000
v 0.449200 0.309711 0.077655
v 0.449200 0.309711 -0.077655
v -0.400000 0.038029 0.000000
v -0.400000 0.038029 0.714528
v -0.400000 0.038029 -0.714528
v 0.400000 0.129315 0.714528
v 0.400000 0.129315 -0.714528
v 0.400000 0.039031 -0.714528
v 0.400000 0.039031 0.714528
v 0.400000 0.129315 0.070951
v 0.400000 0.129315 -0.070951
v 0.400000 0.039031 -0.070951
v 0.400000 0.039031 0.070951
v 0.403474 0.129315 0.714528
v 0.403474 0.129315 -0.714528
v 0.403474 0.039031 -0.714528
v 0.403474 0.039031 0.714528
v 0.403474 0.129315 0.070951
v 0.403474 0.129315 -0.070951
v 0.403474 0.039031 -0.070951
v 0.403474 0.039031 0.070951
vn -0.7540 0.6569 -0.0000
vn -0.0000 -0.0000 1.0000
vn -1.0000 -0.0000 -0.0000
vn 1.0000 -0.0000 -0.0000
vn -0.0000 -0.0000 -1.0000
vn 0.2177 0.9760 -0.0000
vn -0.2177 0.9760 -0.0000
vn 0.7540 0.6569 -0.0000
vn -0.0000 1.0000 -0.0000
vn -0.0000 -1.0000 -0.0000
vt 0.878985 0.380156
vt 0.878985 0.044640
vt 0.740496 0.380156
vt 0.740496 0.044640
vt 0.947151 0.380156
vt 0.878985 0.453674
vt 0.947151 0.044640
vt 0.740496 0.453674
vt 0.648305 0.380156
vt 0.829736 0.380156
vt 0.829736 0.044640
vt 0.648305 0.044640
vt 0.688784 0.380156
vt 0.740496 0.417650
vt 0.173781 0.453674
vt 0.347603 0.380156
vt 0.917885 0.380156
vt 0.878985 0.417650
vt 0.173781 0.417650
vt 0.668545 0.380156
vt 0.740496 0.435662
vt 0.787068 0.380156
vt 0.038778 0.380156
vt 0.125135 0.161578
vt 0.961784 0.380156
vt 0.308785 0.453674
vt 0.836835 0.453674
vt 0.332970 0.380156
vt 0.903253 0.380156
vt 0.878985 0.399638
vt 0.709024 0.380156
vt 0.740496 0.399638
vt 0.308785 0.380156
vt 0.836835 0.380156
vt 0.340772 0.262341
vt 0.787068 0.453674
vt 0.038778 0.453674
vt 0.815103 0.380156
vt 0.362236 0.380156
vt 0.932518 0.380156
vt 0.878985 0.435662
vt 0.787068 0.417650
vt 0.038778 0.417650
vt 0.308785 0.417650
vt 0.836835 0.417650
vt 0.173781 0.399638
vt 0.173781 0.435662
vt 0.308785 0.435662
vt 0.836835 0.435662
vt 0.836835 0.399638
vt 0.308785 0.399638
vt 0.787068 0.399638
vt 0.038778 0.399638
vt 0.787068 0.435662
vt 0.038778 0.435662
vt 0.836835 0.044640
vt 0.308785 0.044640
vt 0.038778 0.044640
vt 0.787068 0.044640
vt 0.105539 0.584689
vt 0.103944 0.977271
vt 0.173781 0.380156
vt 0.284437 0.380156
vt 0.075756 0.380156
vt 0.019949 0.133675
vt 0.101302 0.787596
vt 0.073512 0.319752
vt 0.382335 0.976423
vt 0.282053 0.318699
vt 0.380340 0.581184
vt 0.180825 0.686617
vt 0.179068 0.875723
vt 0.176784 0.794136
vt 0.292502 0.872100
vt 0.287103 0.690129
vt 0.347603 0.044640
vt 0.362236 0.044640
vt 0.815103 0.044640
vt 0.961784 0.044640
vt 0.332970 0.044640
vt 0.122465 0.085261
vt 0.792173 0.224488
vt 0.167444 0.032263
vt 0.122465 0.085261
vt 0.836835 0.275644
vt 0.340772 0.157829
vt 0.122465 0.085261
vt 0.836835 0.223388
vt 0.792173 0.172232
vt 0.122465 0.085261
vt 0.122465 0.085261
vt 0.034104 0.010851
vt 0.122465 0.085261
vt 0.122465 0.085261
vt 0.122465 0.085261
vt 0.122465 0.085261
vt 0.841700 0.645131
vt 0.792173 0.224488
vt 0.122465 0.085261
vt 0.793678 0.645131
vt 0.836835 0.275644
vt 0.793678 0.908588
vt 0.122465 0.085261
vt 0.836835 0.223388
vt 0.835841 0.906635
vt 0.792173 0.172232
vt 0.122465 0.085261
vt 0.908107 0.649038
vt 0.122465 0.085261
vt 0.686256 0.645131
vt 0.122465 0.085261
vt 0.686256 0.908588
vt 0.122465 0.085261
vt 0.906153 0.908588
vt 0.122465 0.085261
s 0
usemtl Material.002
f 29/54/1 20/36/1 7/8/1 14/21/1
f 4/4/2 3/3/2 18/31/2 9/13/2 14/20/2 7/9/2 8/12/2
f 49/79/3 16/25/3 5/5/3 6/7/3
f 4/4/4 53/89/4 50/82/4 15/22/4 3/3/4
f 6/7/5 5/5/5 21/40/5 12/17/5 17/29/5 1/1/5 2/2/5
f 28/52/6 22/42/6 9/14/6 18/32/6
f 27/51/6 23/44/6 13/19/6 24/46/6
f 26/48/1 16/26/1 11/15/1 25/47/1
f 23/44/7 26/48/7 25/47/7 13/19/7
f 12/18/7 21/41/7 26/49/7 23/45/7
f 21/41/1 5/6/1 16/27/1 26/49/1
f 1/1/8 17/30/8 27/50/8 19/34/8
f 17/30/6 12/18/6 23/45/6 27/50/6
f 15/22/8 28/52/8 18/32/8 3/3/8
f 24/46/6 13/19/6 22/43/6 28/53/6
f 22/42/7 29/54/7 14/21/7 9/14/7
f 13/19/7 25/47/7 29/55/7 22/43/7
f 25/47/1 11/15/1 20/37/1 29/55/1
f 24/46/8 28/53/8 15/23/8 37/64/8 35/62/8 36/63/8 19/33/8 27/51/8
f 39/67/4 40/69/4 36/63/4 35/62/4 37/64/4
f 40/70/9 39/68/9 45/74/9 46/75/9
f 44/73/4 42/71/4 46/75/4 45/74/4 43/72/4
f 33/60/5 40/70/5 46/75/5 42/71/5
f 33/60/10 42/71/10 44/73/10 43/72/10 34/61/10 38/66/10
f 39/68/2 34/61/2 43/72/2 45/74/2
f 30/56/10 49/79/10 6/7/10 2/2/10
f 8/11/3 7/10/3 20/38/3 48/78/3
f 48/77/3 20/39/3 11/16/3 47/76/3
f 47/76/3 11/16/3 16/28/3 49/80/3
f 48/77/10 47/76/10 49/80/10 30/57/10 31/58/10
f 8/12/10 48/78/10 31/59/10 4/4/10
f 54/91/9 50/81/9 58/96/9 62/109/9
f 55/93/9 63/111/9 59/99/9 51/84/9
f 58/97/4 61/105/4 65/114/4 62/108/4
f 59/100/4 63/110/4 64/112/4 60/102/4
f 57/95/5 54/91/5 62/109/5 65/115/5
f 50/82/2 53/89/2 61/106/2 58/98/2
f 52/87/9 56/94/9 64/113/9 60/103/9
f 53/90/10 57/95/10 65/115/10 61/107/10
f 56/94/5 55/93/5 63/111/5 64/113/5
f 51/85/2 52/88/2 60/104/2 59/101/2
f 2/2/4 1/1/4 19/34/4 51/85/4 52/88/4
f 15/24/4 50/83/4 54/92/4 37/65/4
f 19/35/4 36/63/4 55/93/4 51/86/4
l 24 10
l 33 32
l 32 34
l 10 35
l 35 41
l 38 32
